<?xml version="1.0" standalone="no"?>
<!DOCTYPE svg PUBLIC "-//W3C//DTD SVG 20010904//EN"
 "http://www.w3.org/TR/2001/REC-SVG-20010904/DTD/svg10.dtd">
<svg version="1.0" xmlns="http://www.w3.org/2000/svg"
 width="512.000000pt" height="512.000000pt" viewBox="0 0 512.000000 512.000000"
 preserveAspectRatio="xMidYMid meet">
<metadata>
Created by potrace 1.16, written by Peter Selinger 2001-2019
</metadata>
<g transform="translate(0.000000,512.000000) scale(0.100000,-0.100000)"
fill="#000000" stroke="none">
<path d="M2573 3736 c-294 -56 -579 -243 -742 -486 -53 -80 -89 -147 -80 -153
2 -2 40 -13 84 -26 104 -29 261 -105 353 -170 83 -59 212 -178 212 -195 0 -13
-163 -156 -179 -156 -6 0 -11 4 -11 9 0 17 -154 142 -230 187 -393 232 -909
163 -1221 -162 -383 -401 -380 -1017 8 -1409 176 -178 410 -280 673 -292 141
-6 276 18 416 76 144 59 211 111 404 312 l175 183 5 595 5 596 57 -75 c77
-103 121 -186 163 -313 46 -137 69 -299 60 -426 l-6 -93 150 153 150 154 1
841 c0 793 -1 842 -17 849 -34 15 -354 15 -430 1z"/>
<path d="M3972 2334 c-29 -153 -122 -352 -233 -501 l-59 -78 0 -422 0 -422
229 0 c254 0 315 9 443 67 179 81 333 256 394 447 32 100 42 243 24 352 -56
352 -370 623 -722 623 l-63 0 -13 -66z"/>
</g>
</svg>
