<svg width="53" height="53" viewBox="0 0 53 53" fill="none" xmlns="http://www.w3.org/2000/svg">
<circle cx="26.2068" cy="26.4915" r="25.8357" fill="#242931"/>
<g clip-path="url(#clip0_359_450)">
<path d="M36.9646 16.7943C34.9882 15.903 32.8696 15.2442 30.6542 14.8695C30.6345 14.8657 30.6141 14.8682 30.5958 14.8765C30.5775 14.8849 30.5623 14.8987 30.5522 14.916C30.2809 15.3927 29.9786 16.0141 29.7668 16.5049C27.4171 16.1539 25.0284 16.1539 22.6787 16.5049C22.4428 15.9609 22.1767 15.4305 21.8817 14.916C21.8717 14.8984 21.8566 14.8843 21.8383 14.8756C21.8201 14.8668 21.7996 14.8638 21.7797 14.8669C19.5655 15.2416 17.447 15.9004 15.4693 16.793C15.4523 16.8001 15.4378 16.8123 15.4279 16.8279C11.4079 22.7378 10.306 28.5018 10.8473 34.1934C10.8488 34.2073 10.8531 34.2208 10.86 34.233C10.8669 34.2452 10.8762 34.2559 10.8873 34.2644C13.2337 35.9727 15.8508 37.2741 18.629 38.114C18.6484 38.1199 18.6691 38.1199 18.6884 38.1139C18.7078 38.1079 18.7249 38.0962 18.7375 38.0804C19.3353 37.2808 19.8651 36.4326 20.3212 35.5446C20.3276 35.5324 20.3312 35.5191 20.3319 35.5054C20.3326 35.4917 20.3304 35.4781 20.3254 35.4653C20.3204 35.4526 20.3127 35.4411 20.3028 35.4316C20.293 35.4221 20.2812 35.4148 20.2683 35.4102C19.4338 35.096 18.6252 34.7168 17.85 34.2761C17.8361 34.2681 17.8244 34.2568 17.8159 34.2432C17.8074 34.2296 17.8024 34.2141 17.8014 34.1981C17.8004 34.1821 17.8033 34.1661 17.81 34.1515C17.8167 34.1369 17.8269 34.1242 17.8397 34.1146C18.0025 33.9944 18.1652 33.8691 18.3202 33.7438C18.3342 33.7326 18.351 33.7254 18.3688 33.7231C18.3866 33.7208 18.4047 33.7235 18.421 33.7309C23.4939 36.0096 28.9878 36.0096 34.0013 33.7309C34.0176 33.7231 34.0359 33.72 34.0539 33.7221C34.072 33.7242 34.0891 33.7312 34.1033 33.7425C34.2583 33.8691 34.4198 33.9944 34.5839 34.1146C34.5968 34.124 34.6072 34.1366 34.6141 34.151C34.621 34.1655 34.6242 34.1814 34.6234 34.1974C34.6226 34.2134 34.6179 34.229 34.6097 34.2427C34.6014 34.2564 34.5899 34.2679 34.5761 34.2761C33.8036 34.7204 33.0001 35.0963 32.1566 35.4089C32.1436 35.4137 32.1318 35.4211 32.122 35.4307C32.1121 35.4403 32.1044 35.4519 32.0994 35.4648C32.0944 35.4776 32.0922 35.4914 32.0929 35.5051C32.0936 35.5189 32.0973 35.5323 32.1036 35.5446C32.5687 36.432 33.1009 37.2769 33.6861 38.0791C33.6982 38.0955 33.7152 38.1078 33.7346 38.1143C33.754 38.1208 33.775 38.1211 33.7946 38.1152C36.5775 37.2777 39.1989 35.9758 41.5479 34.2644C41.5593 34.2564 41.569 34.246 41.5761 34.234C41.5832 34.222 41.5877 34.2086 41.5892 34.1947C42.2351 27.6143 40.5067 21.8969 37.0047 16.8305C36.9961 16.814 36.9819 16.8012 36.9646 16.7943ZM21.0795 30.7275C19.5526 30.7275 18.2931 29.3466 18.2931 27.6531C18.2931 25.9582 19.5281 24.5786 21.0795 24.5786C22.6426 24.5786 23.8904 25.9699 23.8659 27.6531C23.8659 29.3479 22.6309 30.7275 21.0795 30.7275ZM31.3815 30.7275C29.8533 30.7275 28.5951 29.3466 28.5951 27.6531C28.5951 25.9582 29.8288 24.5786 31.3815 24.5786C32.9446 24.5786 34.1924 25.9699 34.1679 27.6531C34.1679 29.3479 32.9459 30.7275 31.3815 30.7275Z" fill="white"/>
</g>
<defs>
<clipPath id="clip0_359_450">
<rect width="31.0029" height="31.0029" fill="white" transform="translate(10.7188 10.9902)"/>
</clipPath>
</defs>
</svg>
