<svg width="52" height="53" viewBox="0 0 52 53" fill="none" xmlns="http://www.w3.org/2000/svg">
<circle cx="26.0584" cy="26.4915" r="25.8357" fill="#242931"/>
<path d="M25.6725 10.6084C17.1233 10.6084 10.168 17.5637 10.168 26.1129C10.168 34.6621 17.1233 41.6174 25.6725 41.6174C34.2217 41.6174 41.177 34.6621 41.177 26.1129C41.177 17.5637 34.2217 10.6084 25.6725 10.6084ZM37.9691 24.5625H33.6837C33.4924 21.1689 32.543 17.8614 30.9053 14.883C32.8033 15.7699 34.4463 17.1225 35.6813 18.8148C36.9163 20.5071 37.7033 22.4843 37.9691 24.5625ZM26.4942 13.7512C28.0989 15.866 30.2572 19.6119 30.5673 24.5625H21.0676C21.2832 20.5375 22.6088 16.7668 24.8678 13.7496C25.1345 13.7341 25.4011 13.7093 25.6725 13.7093C25.95 13.7093 26.2213 13.7341 26.4942 13.7512ZM20.5374 14.8365C19.0117 17.7684 18.1311 21.0925 17.9667 24.5625H13.3759C13.6437 22.466 14.442 20.4725 15.6952 18.7706C16.9483 17.0687 18.615 15.7146 20.5374 14.8365ZM13.3759 27.6634H17.9869C18.1978 31.3519 19.0179 34.6063 20.3994 37.3227C18.5112 36.4326 16.8779 35.081 15.6503 33.3927C14.4227 31.7044 13.6405 29.7339 13.3759 27.6634ZM24.8197 38.4747C22.6475 35.842 21.3653 32.1535 21.0847 27.6634H30.5626C30.2401 31.9628 28.8307 35.7195 26.5268 38.4731C26.2446 38.4917 25.9624 38.5165 25.6725 38.5165C25.3841 38.5165 25.1035 38.4917 24.8197 38.4747ZM31.0386 37.2777C32.5193 34.4962 33.4232 31.2294 33.6604 27.6634H37.9676C37.7059 29.7166 36.9349 31.6718 35.7247 33.351C34.5145 35.0301 32.9036 36.38 31.0386 37.2777Z" fill="white"/>
</svg>
