<svg width="35" height="25" viewBox="0 0 35 25" fill="none" xmlns="http://www.w3.org/2000/svg">
<path opacity="0.82" d="M18.1291 18.9506C23.0566 18.9506 27.0512 14.956 27.0512 10.0285C27.0512 5.101 23.0566 1.10645 18.1291 1.10645C13.2016 1.10645 9.20703 5.101 9.20703 10.0285C9.20703 14.956 13.2016 18.9506 18.1291 18.9506Z" fill="url(#paint0_linear_359_380)"/>
<path opacity="0.72" d="M33.0077 17.0441C33.0077 18.6598 32.3659 20.2092 31.2235 21.3516C30.0811 22.4941 28.5316 23.1359 26.916 23.1359C25.8144 23.1387 24.7332 22.8388 23.7904 22.269L13.6875 22.3908L21.185 15.0666C21.6712 13.7262 22.6121 12.5988 23.8439 11.8807C25.0758 11.1626 26.5205 10.8994 27.9264 11.1369C29.3324 11.3743 30.6105 12.0975 31.5381 13.1803C32.4658 14.2632 32.9842 15.6371 33.003 17.0629L33.0077 17.0441Z" fill="url(#paint1_linear_359_380)"/>
<path opacity="0.84" d="M9.59415 23.4637C14.1852 23.4637 17.9071 19.7419 17.9071 15.1508C17.9071 10.5597 14.1852 6.83789 9.59415 6.83789C5.00306 6.83789 1.28125 10.5597 1.28125 15.1508C1.28125 19.7419 5.00306 23.4637 9.59415 23.4637Z" fill="url(#paint2_linear_359_380)"/>
<path d="M26.1245 22.9429C26.8512 23.074 27.5955 23.074 28.3222 22.9429C29.8328 22.6752 31.1906 21.8575 32.1336 20.6475C33.0765 19.4375 33.5378 17.921 33.4283 16.3909C33.3188 14.8608 32.6463 13.4255 31.5406 12.3621C30.4349 11.2987 28.9745 10.6826 27.4413 10.6328H27.221C25.9562 10.6299 24.7211 11.016 23.6831 11.7387V11.7387C23.1338 12.1269 22.6511 12.6017 22.2539 13.1445" stroke="white" stroke-width="1.69519" stroke-miterlimit="10"/>
<path d="M27.4426 10.6333C27.4426 10.4553 27.4426 10.2772 27.4426 10.0991C27.4425 9.47898 27.3797 8.86042 27.2552 8.25288C26.8494 6.2915 25.8076 4.5189 24.2914 3.21017C22.7752 1.90145 20.8694 1.12979 18.8698 1.01497C16.8702 0.900137 14.8886 1.44856 13.2325 2.57511C11.5764 3.70167 10.3386 5.34336 9.71094 7.2454" stroke="white" stroke-width="1.69519" stroke-miterlimit="10"/>
<path d="M16.2562 18.9514C16.1953 18.9514 16.1344 18.9232 16.0781 18.9092" stroke="white" stroke-width="2.34298" stroke-miterlimit="10"/>
<path d="M14.9909 9.91658C13.9059 8.68586 12.4684 7.81878 10.8737 7.43305C9.27897 7.04732 7.60417 7.16162 6.07663 7.76042C4.54909 8.35922 3.24279 9.41354 2.33503 10.7803C1.42727 12.147 0.962019 13.7599 1.00243 15.4001C1.04283 17.0403 1.58694 18.6284 2.5609 19.9488C3.53485 21.2691 4.89148 22.2578 6.44666 22.7807C8.00183 23.3036 9.68022 23.3352 11.254 22.8715C12.8278 22.4077 14.2208 21.4709 15.2439 20.1882" stroke="white" stroke-width="1.69519" stroke-miterlimit="10"/>
<path d="M11.0179 22.9951H10.793H11.9457H25.9239H26.7159" stroke="white" stroke-width="1.69519" stroke-miterlimit="10"/>
<path d="M12.4727 22.9433L13.8691 21.5329L15.3639 20.024L17.6506 17.7138L19.0658 16.2752L19.0799 16.2658L22.599 12.7139" stroke="white" stroke-width="1.69519" stroke-miterlimit="10"/>
<defs>
<linearGradient id="paint0_linear_359_380" x1="9.20703" y1="10.0285" x2="27.0512" y2="10.0285" gradientUnits="userSpaceOnUse">
<stop stop-color="#002FD4"/>
<stop offset="1" stop-color="#00E0FF"/>
</linearGradient>
<linearGradient id="paint1_linear_359_380" x1="13.7016" y1="17.0394" x2="33.0077" y2="17.0394" gradientUnits="userSpaceOnUse">
<stop stop-color="#61DDFA"/>
<stop offset="1" stop-color="#AD23C0"/>
</linearGradient>
<linearGradient id="paint2_linear_359_380" x1="1.28125" y1="15.1508" x2="17.9071" y2="15.1508" gradientUnits="userSpaceOnUse">
<stop offset="0.04" stop-color="#3B23C0"/>
<stop offset="0.17" stop-color="#251A9D"/>
<stop offset="0.31" stop-color="#10107B"/>
<stop offset="0.39" stop-color="#080D6E"/>
<stop offset="0.48" stop-color="#0A1171"/>
<stop offset="0.56" stop-color="#0F1D79"/>
<stop offset="0.65" stop-color="#173186"/>
<stop offset="0.73" stop-color="#234D99"/>
<stop offset="0.81" stop-color="#3370B1"/>
<stop offset="0.9" stop-color="#459CCF"/>
<stop offset="0.98" stop-color="#5BCFF1"/>
<stop offset="1" stop-color="#61DDFA"/>
</linearGradient>
</defs>
</svg>
