<svg width="27" height="19" viewBox="0 0 27 19" fill="none" xmlns="http://www.w3.org/2000/svg">
<path fill-rule="evenodd" clip-rule="evenodd" d="M16.7533 1.87416C16.3811 1.82512 16.0014 1.79981 15.6157 1.79981C12.2101 1.79981 9.26885 3.77304 7.88904 6.63049C5.52517 7.44546 3.82835 9.67594 3.82835 12.2998C3.82835 14.0905 4.61869 15.698 5.87202 16.7974C2.61347 16.7066 0 14.0562 0 10.7998C0 8.17593 1.69683 5.94544 4.0607 5.13048C5.44051 2.27303 8.38176 0.299805 11.7873 0.299805C13.6386 0.299805 15.3527 0.882902 16.7533 1.87416Z" fill="#60C7EB"/>
<path opacity="0.5" fill-rule="evenodd" clip-rule="evenodd" d="M6.04455 16.7998C6.11198 16.7998 6.17916 16.7987 6.24606 16.7965V16.7998H8.88647H14.6877H18.3356V16.7899C18.4355 16.7965 18.5363 16.7998 18.6378 16.7998C21.1417 16.7998 23.1714 14.7851 23.1714 12.2998C23.1714 10.4059 21.9927 8.7852 20.3236 8.12118C20.1186 5.54504 18.7565 3.29204 16.7531 1.87415C16.3809 1.82511 16.0011 1.7998 15.6154 1.7998C12.2099 1.7998 9.26863 3.77303 7.88882 6.63048C5.52495 7.44545 3.82812 9.67593 3.82812 12.2998C3.82812 14.0905 4.61847 15.698 5.8718 16.7974C5.92919 16.799 5.98677 16.7998 6.04455 16.7998Z" fill="#4A56EE"/>
<path opacity="0.88" fill-rule="evenodd" clip-rule="evenodd" d="M10.0744 18.2965C10.0075 18.2987 9.94033 18.2998 9.8729 18.2998C6.53446 18.2998 3.82812 15.6135 3.82812 12.2998C3.82812 9.67593 5.52495 7.44545 7.88882 6.63048C9.26863 3.77303 12.2099 1.7998 15.6154 1.7998C20.1148 1.7998 23.8037 5.24405 24.152 9.62119C25.821 10.2852 26.9998 11.9059 26.9998 13.7998C26.9998 16.2851 24.97 18.2998 22.4662 18.2998C22.3646 18.2998 22.2639 18.2965 22.164 18.29V18.2998H18.5161H12.7148H10.0744V18.2965Z" fill="#4A56EE"/>
</svg>