<svg width="53" height="53" viewBox="0 0 53 53" fill="none" xmlns="http://www.w3.org/2000/svg">
<circle cx="26.7811" cy="26.4915" r="25.8357" fill="#242931"/>
<path d="M26.7825 12.9297C19.2922 12.9297 13.2188 19.0031 13.2188 26.4935C13.2188 33.9838 19.2922 40.0572 26.7825 40.0572C34.2729 40.0572 40.3463 33.9838 40.3463 26.4935C40.3463 19.0031 34.2729 12.9297 26.7825 12.9297ZM34.5332 20.6108L33.298 21.7946C33.189 21.8763 33.1375 22.0095 33.1587 22.1397V30.8502C33.1375 30.9834 33.189 31.1166 33.298 31.1954L34.509 32.3792V32.6426H28.4295V32.3913L29.68 31.1772C29.8041 31.0531 29.8041 31.0167 29.8041 30.832V23.7837L26.3223 32.6123H25.853L21.8021 23.7837V29.7027C21.7657 29.951 21.8535 30.2023 22.0291 30.3809L23.658 32.3519V32.6153H19.0318V32.3519L20.6607 30.3809C20.7465 30.2923 20.8103 30.1848 20.8471 30.067C20.8839 29.9492 20.8927 29.8245 20.8726 29.7027V22.8603C20.8938 22.6696 20.8211 22.4849 20.6758 22.3547L19.2286 20.6108V20.3474H23.7246L27.1943 27.9619L30.2491 20.3534H34.5332V20.6108Z" fill="white"/>
</svg>
