<svg width="17" height="17" viewBox="0 0 17 17" fill="none" xmlns="http://www.w3.org/2000/svg">
<path d="M8.5 0.1875C3.90957 0.1875 0.1875 3.90957 0.1875 8.5C0.1875 13.0904 3.90957 16.8125 8.5 16.8125C13.0904 16.8125 16.8125 13.0904 16.8125 8.5C16.8125 3.90957 13.0904 0.1875 8.5 0.1875ZM13.25 4.89482L12.493 5.62031C12.4262 5.67041 12.3946 5.75205 12.4076 5.83184V11.17C12.3946 11.2517 12.4262 11.3333 12.493 11.3815L13.2352 12.107V12.2685H9.50938V12.1145L10.2757 11.3704C10.3518 11.2943 10.3518 11.2721 10.3518 11.1589V6.83936L8.21797 12.2499H7.93037L5.44775 6.83936V10.4668C5.42549 10.6189 5.4793 10.7729 5.58691 10.8824L6.58516 12.0903V12.2518H3.75V12.0903L4.74824 10.8824C4.80084 10.8281 4.83998 10.7622 4.86253 10.69C4.88509 10.6179 4.89043 10.5414 4.87812 10.4668V6.27344C4.89111 6.15654 4.84658 6.04336 4.75752 5.96357L3.87061 4.89482V4.7334H6.62598L8.75234 9.3999L10.6245 4.73711H13.25V4.89482Z" fill="white"/>
</svg>
