<svg width="53" height="53" viewBox="0 0 53 53" fill="none" xmlns="http://www.w3.org/2000/svg">
<circle cx="26.6326" cy="26.4915" r="25.8357" fill="#242931"/>
<path d="M41.6907 17.3689C40.6121 17.8469 39.4533 18.1698 38.2352 18.3158C39.4921 17.5637 40.4324 16.38 40.8807 14.9856C39.6999 15.687 38.4074 16.1807 37.0596 16.4453C36.1533 15.4776 34.9528 14.8361 33.6446 14.6206C32.3363 14.4051 30.9935 14.6275 29.8246 15.2533C28.6558 15.8791 27.7262 16.8733 27.1803 18.0816C26.6343 19.2899 26.5026 20.6446 26.8054 21.9354C24.4126 21.8152 22.0718 21.1933 19.935 20.11C17.7981 19.0266 15.9129 17.5061 14.4017 15.647C13.885 16.5383 13.5879 17.5717 13.5879 18.6723C13.5873 19.6631 13.8313 20.6387 14.2982 21.5126C14.7651 22.3865 15.4405 23.1316 16.2644 23.6819C15.3089 23.6515 14.3744 23.3933 13.5388 22.9288V23.0063C13.5387 24.3959 14.0194 25.7428 14.8993 26.8183C15.7792 27.8939 17.0041 28.6319 18.3662 28.9072C17.4797 29.1471 16.5504 29.1824 15.6483 29.0105C16.0326 30.2062 16.7812 31.2518 17.7892 32.0009C18.7973 32.75 20.0144 33.1651 21.2701 33.1881C19.1385 34.8615 16.5059 35.7692 13.7958 35.7653C13.3158 35.7654 12.8361 35.7374 12.3594 35.6813C15.1102 37.45 18.3124 38.3886 21.5827 38.385C32.6534 38.385 38.7054 29.2159 38.7054 21.2637C38.7054 21.0053 38.6989 20.7444 38.6873 20.486C39.8645 19.6347 40.8806 18.5805 41.6881 17.3728L41.6907 17.3689Z" fill="white"/>
</svg>
