<svg width="19" height="15" viewBox="0 0 19 15" fill="none" xmlns="http://www.w3.org/2000/svg">
<path d="M18.7178 1.90866C18.0567 2.20158 17.3466 2.39949 16.6001 2.48895C17.3704 2.02804 17.9466 1.30261 18.2214 0.448037C17.4977 0.877903 16.7056 1.18048 15.8796 1.34262C15.3242 0.749555 14.5885 0.356462 13.7867 0.22437C12.985 0.092279 12.1621 0.22858 11.4457 0.612112C10.7294 0.995644 10.1597 1.60495 9.8251 2.34543C9.49053 3.08591 9.40978 3.91613 9.5954 4.7072C8.12898 4.63357 6.69444 4.25243 5.38486 3.5885C4.07528 2.92458 2.91994 1.99271 1.99381 0.85337C1.67715 1.39962 1.49506 2.03295 1.49506 2.70745C1.49471 3.31466 1.64424 3.91256 1.93038 4.44812C2.21653 4.98367 2.63044 5.44032 3.1354 5.77754C2.54978 5.7589 1.97709 5.60067 1.46498 5.31599V5.36349C1.46492 6.21512 1.75951 7.04054 2.29875 7.6997C2.83799 8.35886 3.58868 8.81115 4.42344 8.97983C3.88018 9.12685 3.31062 9.14851 2.75777 9.04316C2.99329 9.77594 3.45206 10.4167 4.06985 10.8758C4.68765 11.3349 5.43354 11.5893 6.2031 11.6034C4.89672 12.6289 3.28335 13.1852 1.62252 13.1828C1.32832 13.1829 1.03437 13.1657 0.742188 13.1313C2.42802 14.2153 4.39046 14.7905 6.39469 14.7883C13.1793 14.7883 16.8882 9.16904 16.8882 4.29554C16.8882 4.1372 16.8843 3.97729 16.8771 3.81895C17.5986 3.29722 18.2213 2.65116 18.7162 1.91104L18.7178 1.90866Z" fill="white"/>
</svg>
